<?xml version="1.0" encoding="UTF-8" standalone="no"?>
<!-- Created with Inkscape (http://www.inkscape.org/) -->

<svg
   width="47mm"
   height="47mm"
   viewBox="0 0 47 47"
   version="1.1"
   id="svg1"
   inkscape:version="1.3.2 (091e20e, 2023-11-25)"
   sodipodi:docname="logo_lines.svg"
   xml:space="preserve"
   xmlns:inkscape="http://www.inkscape.org/namespaces/inkscape"
   xmlns:sodipodi="http://sodipodi.sourceforge.net/DTD/sodipodi-0.dtd"
   xmlns="http://www.w3.org/2000/svg"
   xmlns:svg="http://www.w3.org/2000/svg"><sodipodi:namedview
     id="namedview1"
     pagecolor="#ffffff"
     bordercolor="#000000"
     borderopacity="0.25"
     inkscape:showpageshadow="2"
     inkscape:pageopacity="0.0"
     inkscape:pagecheckerboard="0"
     inkscape:deskcolor="#d1d1d1"
     inkscape:document-units="mm"
     inkscape:zoom="1.4993952"
     inkscape:cx="-3.334678"
     inkscape:cy="153.72866"
     inkscape:window-width="1432"
     inkscape:window-height="786"
     inkscape:window-x="80"
     inkscape:window-y="45"
     inkscape:window-maximized="0"
     inkscape:current-layer="layer1"
     showguides="true"
     inkscape:export-bgcolor="#ffffffff"><sodipodi:guide
       position="-7.9334882,7716.7695"
       orientation="1,0"
       id="guide290"
       inkscape:locked="false" /><sodipodi:guide
       position="-0.92862817,7744.4871"
       orientation="1,0"
       id="guide291"
       inkscape:locked="false" /><sodipodi:guide
       position="-3.2354682,7742.797"
       orientation="0,-1"
       id="guide292"
       inkscape:locked="false" /><sodipodi:guide
       position="46.182282,7735.184"
       orientation="1,0"
       id="guide293"
       inkscape:locked="false" /><sodipodi:guide
       position="53.183842,7735.3441"
       orientation="1,0"
       id="guide294"
       inkscape:locked="false" /><sodipodi:guide
       position="54.125082,7696.6823"
       orientation="0,-1"
       id="guide299"
       inkscape:locked="false" /><sodipodi:guide
       position="43.726032,7723.3045"
       orientation="0,-1"
       id="guide300"
       inkscape:locked="false" /><sodipodi:guide
       position="45.806282,7709.9007"
       orientation="0,-1"
       id="guide301"
       inkscape:locked="false" /><sodipodi:guide
       position="18.676482,7683.5542"
       orientation="0,-1"
       id="guide302"
       inkscape:locked="false" /><sodipodi:guide
       position="22.380952,7699.6512"
       orientation="1,0"
       id="guide303"
       inkscape:locked="false" /><sodipodi:guide
       position="27.718032,7254.6218"
       orientation="0,-1"
       id="guide518"
       inkscape:locked="false" /><sodipodi:guide
       position="33.600532,7328.6663"
       orientation="0,-1"
       id="guide542"
       inkscape:locked="false" /><sodipodi:guide
       position="16.101862,7048.5458"
       orientation="0,-1"
       id="guide548"
       inkscape:locked="false" /><sodipodi:guide
       position="18.679882,7055.54"
       orientation="0,-1"
       id="guide554"
       inkscape:locked="false" /><sodipodi:guide
       position="6.3863218,6578.8463"
       orientation="0,-1"
       id="guide1103"
       inkscape:locked="false" /><sodipodi:guide
       position="19.763972,6536.3752"
       orientation="0,-1"
       id="guide1104"
       inkscape:locked="false" /></sodipodi:namedview><defs
     id="defs1"><clipPath
       clipPathUnits="userSpaceOnUse"
       id="clipPath1551"><path
         style="opacity:1;fill:none;fill-opacity:1;stroke:#fd0d43;stroke-width:0.4;stroke-linecap:butt;stroke-linejoin:miter;stroke-dasharray:none;stroke-opacity:1"
         d="M 697.42817,2900.53 701.66669,2907.4658 709.37308,2912.0896 714.38225,2919.0254 713.22628,2929.8143 713.99691,2941.374 719.77671,2945.6126 728.63906,2947.1538 732.49226,2953.3189 739.04269,2947.1538 748.67566,2945.2271 749.061,2935.5942 751.75822,2922.8785 752.52887,2910.5484 756.38205,2907.4658 770.63886,2909.7777 778.73058,2903.9979 780.65717,2888.9706 777.57462,2879.7229 769.09761,2881.6496 766.78568,2891.6678 767.94164,2899.3743 751.75822,2901.3007 756.38205,2895.5209 753.68481,2885.5027 749.83163,2880.4936 734.03354,2880.1081 711.29969,2880.4936 708.21714,2883.576 705.90521,2893.9797 708.98777,2899.3743 718.23543,2905.9246 713.6116,2907.4658 707.44649,2903.9979 701.66669,2892.8237 693.57499,2883.9615 686.63923,2888.5851 685.86861,2895.1357 687.40988,2901.6862 Z"
         id="path1552"
         sodipodi:nodetypes="cccccccccccccccccccccccccccccccccccccccc" /></clipPath><clipPath
       clipPathUnits="userSpaceOnUse"
       id="clipPath1597"><path
         style="opacity:1;fill:none;fill-opacity:1;stroke:#fd0d43;stroke-width:0.561403;stroke-linecap:butt;stroke-linejoin:miter;stroke-dasharray:none;stroke-opacity:1"
         d="M 714.11026,2911.7216 716.46057,2911.5408 718.44928,2910.8178 717.99727,2912.1736 717.18373,2915.0664 716.73173,2918.6821 716.37019,2922.3885 716.64135,2926.7273 716.9125,2930.072 717.09335,2933.4167 717.3645,2936.7614 717.72612,2939.4734 718.44928,2942.2755 719.53405,2943.3602 H 720.79959 L 722.06514,2942.5466 723.2403,2940.8292 724.59622,2938.5692 725.86177,2936.4904 726.94654,2933.507 728.30247,2930.1626 729.38717,2926.8179 730.38156,2923.5635 731.10471,2920.9421 731.55672,2917.9591 731.91826,2914.8855 732.0991,2911.8119 732.64149,2908.1059 732.91264,2907.4731 733.27426,2908.2867 733.90703,2910.3659 734.17819,2912.9872 734.63019,2917.1455 735.17258,2919.6766 735.89573,2923.2022 736.98051,2927.3601 737.88447,2930.8857 738.96921,2934.6823 740.23475,2937.2134 741.9523,2940.287 742.94665,2942.1853 744.48338,2943.4509 745.47774,2943.7219 746.29124,2943.27 746.56247,2941.6428 747.19524,2937.8461 747.82801,2934.6823 748.64159,2929.801 749.27437,2925.9137 749.72633,2923.1115 749.81675,2920.8515 749.90714,2917.7783 V 2915.2472 L 749.45517,2912.897 748.3704,2911.36 746.92401,2910.5463 745.56808,2910.0944 743.85061,2909.6425 741.9523,2909.5523 742.38209,2908.4416 742.76584,2907.5633 743.00012,2906.6907 743.36723,2905.7812 744.11256,2904.8882 744.80805,2904.4752 745.62716,2904.2632 746.57499,2904.3683 747.71468,2904.6657 749.57389,2905.3947 752.2006,2905.8841 756.02653,2906.5169 758.55732,2906.8622 757.49049,2905.0969 752.58621,2904.3389 748.7524,2903.1673 747.55686,2902.1398 749.72633,2900.5126 751.44388,2898.7951 752.23536,2896.9068 750.56375,2896.856 751.0136,2894.7066 751.31353,2892.3074 751.36348,2889.858 751.1136,2888.1082 750.91363,2886.3588 750.2138,2885.0591 748.86418,2884.0097 747.36461,2883.7594 745.71506,2884.2596 743.76561,2884.6591 741.56617,2884.9091 739.71673,2884.8092 737.61729,2884.4092 735.31792,2883.8095 733.9683,2882.6598 733.41845,2882.31 733.30501,2883.7482 733.20151,2886.6466 732.94272,2887.8887 732.06293,2889.4929 731.07961,2887.5783 730.92428,2886.1289 V 2884.5763 L 730.76906,2883.3342 730.40681,2882.144 730.04449,2882.1956 729.31996,2883.4898 728.23307,2884.1623 726.8875,2884.4731 724.55857,2884.1623 722.69542,2883.8518 720.2112,2883.4378 718.24459,2883.3862 H 716.38144 L 714.20777,2883.8002 712.55165,2884.6283 711.56833,2885.8185 711.10251,2887.2678 711.05078,2889.8554 711.25777,2891.9256 711.77531,2894.2543 712.44808,2896.273 712.96562,2897.3599 711.62005,2896.3246 710.74023,2897.2043 710.53324,2897.9292 710.84376,2898.55 711.51656,2898.9641 712.60334,2899.8958 715.03584,2901.2932 716.66608,2901.8364 717.9858,2902.7422 719.95248,2904.2947 721.86736,2905.6921 723.26473,2906.4686 721.29809,2907.5035 719.43494,2908.6421 716.95075,2909.3666 H 715.03584 L 712.1376,2909.1078 709.86044,2908.3316 708.87232,2908.0067 706.41476,2907.0238 704.35038,2906.2376 704.23954,2906.7746 704.91141,2907.7984 706.2552,2908.918 708.84678,2910.3258 710.5745,2910.9979 712.20626,2911.3815 713.70998,2911.5735 714.15794,2911.7016"
         id="path1597"
         sodipodi:nodetypes="cccccccccccccccccccccccccccccccccccccccccccccccccccccccccccccccccccccccccccccccccccccccccccccccccccccccccccccccccccccccccccccccccccccccccccccccccccccccc" /></clipPath><clipPath
       clipPathUnits="userSpaceOnUse"
       id="clipPath2005"><path
         style="opacity:1;fill:none;fill-opacity:1;stroke:#fd0d43;stroke-width:0.561403;stroke-linecap:butt;stroke-linejoin:miter;stroke-dasharray:none;stroke-opacity:1"
         d="M 721.29809,2907.5035 723.26473,2906.4686 721.86736,2905.6921 719.95248,2904.2947 717.9858,2902.7421 716.66608,2901.8364 715.03584,2901.2932 712.60334,2899.8958 711.51656,2898.9641 710.84376,2898.55 710.53324,2897.9291 710.74023,2897.2043 711.62005,2896.3246 712.96562,2897.3599 712.44808,2896.2729 711.77531,2894.2543 711.25777,2891.9256 711.05078,2889.8554 711.10251,2887.2678 711.56833,2885.8185 712.55165,2884.6283 714.20777,2883.8002 716.38144,2883.3862 H 718.24459 L 720.2112,2883.4378 722.69542,2883.8518 724.55857,2884.1623 726.8875,2884.4731 728.23307,2884.1623 729.31996,2883.4898 730.04449,2882.1956 730.40681,2882.144 730.76906,2883.3342 730.92428,2884.5763 V 2886.1289 L 731.07961,2887.5783 732.06293,2889.4929 732.94272,2887.8887 733.20151,2886.6466 733.30501,2883.7482 733.41845,2882.31 733.9683,2882.6598 735.31792,2883.8095 737.61729,2884.4092 739.71673,2884.8091 741.56617,2884.909 743.76561,2884.6591 745.71506,2884.2596 747.36461,2883.7594 748.86418,2884.0096 750.2138,2885.0591 750.91363,2886.3588 751.1136,2888.1082 751.36348,2889.858 751.31353,2892.3073 751.0136,2894.7066 750.56375,2896.856 752.23536,2896.9068 751.44388,2898.7951 749.72633,2900.5126 747.55686,2902.1398 748.7524,2903.1673 750.07673,2904.0842 C 748.08313,2905.0564 748.4065,2904.6215 747.71468,2904.6657 L 746.57499,2904.3683 745.62716,2904.2632 744.80805,2904.4752 744.11256,2904.8881 743.36723,2905.7812 743.00012,2906.6907 742.76584,2907.5633 742.38209,2908.4415 741.9523,2909.5522 743.85061,2909.6425 745.56808,2910.0944 746.92401,2910.5463 748.3704,2911.3599 749.45517,2912.8969 749.90714,2915.2472 V 2917.7783 L 749.81675,2920.8515 749.72633,2923.1115 749.27437,2925.9137 748.64159,2929.8009 747.82801,2934.6823 747.19524,2937.8461 746.56247,2941.6428 746.29124,2943.27 745.47774,2943.7219 744.48338,2943.4508 742.94665,2942.1853 741.9523,2940.287 740.23475,2937.2134 738.96921,2934.6823 737.88447,2930.8856 736.98051,2927.3601 735.89573,2923.2021 735.17258,2919.6766 734.63019,2917.1455 734.17819,2912.9872 733.90703,2910.3659 733.27426,2908.2867 732.91264,2907.4731 732.64149,2908.1059 732.0991,2911.8119 731.91826,2914.8855 731.55672,2917.9591 731.10471,2920.9421 730.38156,2923.5635 729.38717,2926.8179 728.30247,2930.1626 726.94654,2933.507 725.86177,2936.4904 724.59622,2938.5691 723.2403,2940.8291 722.06514,2942.5466 720.79959,2943.3602 H 719.53405 L 718.44928,2942.2755 717.72612,2939.4734 717.3645,2936.7614 717.09335,2933.4167 716.9125,2930.072 716.64135,2926.7273 716.37019,2922.3885 716.73173,2918.6821 717.18373,2915.0663 717.99727,2912.1736 718.65652,2910.7027 720.11097,2910.1906 721.47158,2909.6804 721.58495,2909.3402 721.2448,2908.5466 720.56453,2908.433 719.71627,2908.7078 Z"
         id="path2005"
         sodipodi:nodetypes="cccccccccccccccccccccccccccccccccccccccccccccccccccccccccccccccccccccccccccccccccccccccccccccccccccccccccccccccccccccccccccccccccccccccc" /></clipPath></defs><g
     inkscape:label="Layer 1"
     inkscape:groupmode="layer"
     id="layer1"
     transform="translate(-857.46265,-4215.8933)"><path
       style="display:inline;fill:#7d7d7d;fill-opacity:0.165789;stroke:none;stroke-width:0.387304;stroke-dasharray:none;stroke-opacity:0.557895"
       d="M 857.46283,4215.8933 857.46265,4262.8933 H 904.46265 V 4215.8934 Z"
       id="path289-7"
       sodipodi:nodetypes="ccccc"
       inkscape:export-filename="test1-27-11-clean-opacqueLila_600dpi.jpg"
       inkscape:export-xdpi="600"
       inkscape:export-ydpi="600"
       inkscape:label="path289-7 grey bg" /><text
       xml:space="preserve"
       style="font-style:normal;font-variant:normal;font-weight:normal;font-stretch:normal;font-size:10.2306px;line-height:0%;font-family:Baskerville;-inkscape-font-specification:'Baskerville, Normal';font-variant-ligatures:normal;font-variant-caps:normal;font-variant-numeric:normal;font-variant-east-asian:normal;text-decoration-color:#000000;letter-spacing:0px;word-spacing:0px;display:none;opacity:1;fill:#515050;fill-opacity:0.890196;stroke:#000000;stroke-width:0.289999;stroke-linecap:butt;stroke-linejoin:miter;stroke-dasharray:none;stroke-opacity:1"
       x="598.27087"
       y="3309.896"
       id="text2356"><tspan
         sodipodi:role="line"
         style="stroke-width:0.29"
         x="0"
         y="0"
         id="tspan2361" /></text><g
       inkscape:groupmode="layer"
       id="layer2"
       inkscape:label="purple fill "
       transform="translate(857.46265,4215.8933)"><path
         style="display:none;fill:#d8d8ee;fill-opacity:0.24;stroke:none;stroke-width:0.203755"
         d="M 862.82418,4223.7853 864.55418,4229.6569 866.04181,4230.4973 H 874.80418 L 876.31297,4230.4974 876.31318,4220.8857 V 4218.0787 H 867.07218 Z"
         id="path2942"
         sodipodi:nodetypes="ccccccccc"
         inkscape:label="path2942 purple fill left top"
         transform="translate(-857.46265,-4215.8933)" /><path
         style="display:none;fill:#d8d8ee;fill-opacity:0.24;stroke:none;stroke-width:0.198008"
         d="M 883.38627,4220.2871 V 4230.4273 L 884.90187,4230.4278 892.86327,4230.4274 896.74627,4224.4749 892.50127,4218.0787 H 883.38627 Z"
         id="path2943"
         sodipodi:nodetypes="cccccccc"
         inkscape:label="path2943 purple fill right top"
         transform="translate(-857.46265,-4215.8933)" /><path
         style="display:none;fill:#d8d8ee;fill-opacity:0.24;stroke:none;stroke-width:0.558001;stroke-dasharray:none;stroke-opacity:0.557895"
         d="M 873.80254,4257.8344 876.31318,4245.5784 V 4231.7283 L 873.05418,4231.7287 862.90846,4239.1235 Z"
         id="path2944"
         sodipodi:nodetypes="cccccc"
         inkscape:label="path2944 purple fill left bottom"
         transform="translate(-857.46265,-4215.8933)" /><path
         style="display:none;fill:#d8d8ee;fill-opacity:0.24;stroke:none;stroke-width:0.558001;stroke-dasharray:none;stroke-opacity:0.557895"
         d="M 885.81135,4257.3135 883.34983,4245.4456 883.35027,4231.7287 H 886.80427 L 896.92027,4239.1277 Z"
         id="path2945"
         sodipodi:nodetypes="cccccc"
         inkscape:label="path2945 purple fill right bottom"
         transform="translate(-857.46265,-4215.8933)" /></g><g
       inkscape:groupmode="layer"
       id="g4"
       inkscape:label="white fill  "
       transform="translate(857.46265,4215.8933)" /><path
       style="display:none;fill:none;stroke:#fffffb;stroke-width:1.3;stroke-dasharray:none;stroke-opacity:1"
       d="M 884.66151,4231.7612 894.89324,4239.1215 883.68767,4257.3933 881.21465,4245.4453 V 4216.9188 L 890.7635,4216.9563 894.67702,4222.8527 890.36359,4229.2516 884.33187,4229.2514"
       id="path2946"
       sodipodi:nodetypes="ccccccccc"
       inkscape:label="path2946 white path up right" /><path
       style="display:none;fill:none;stroke:#ffffff;stroke-width:1.3;stroke-dasharray:none;stroke-opacity:1"
       d="M 871.52305,4234.3881 865.03136,4239.1214 875.92694,4257.9234 878.47846,4245.4455 V 4216.9178 L 869.01795,4216.9173 865.12086,4221.9997 867.20991,4228.4999"
       id="path2947"
       sodipodi:nodetypes="cccccccc"
       inkscape:label="path2947 white path up left" /><g
       id="g5"
       transform="translate(0.98327716,-0.50696213)"><path
         style="display:inline;fill:#d8d8ee;fill-opacity:1;stroke:none;stroke-width:0.203755"
         d="M 862.82418,4223.7853 864.55418,4229.6569 866.04181,4230.4973 H 874.80418 L 876.31297,4230.4974 876.31318,4220.8857 V 4218.0787 H 867.07218 Z"
         id="path1"
         sodipodi:nodetypes="ccccccccc"
         inkscape:label="path2942 purple fill left top"
         transform="translate(4.3750002e-6,-2.2916666e-5)" /><path
         style="display:inline;fill:#d8d8ee;fill-opacity:1;stroke:none;stroke-width:0.198008"
         d="M 883.38627,4220.2871 V 4230.4273 L 884.90187,4230.4278 892.86327,4230.4274 896.74627,4224.4749 892.50127,4218.0787 H 883.38627 Z"
         id="path2"
         sodipodi:nodetypes="cccccccc"
         inkscape:label="path2943 purple fill right top"
         transform="translate(4.3750002e-6,-2.2916666e-5)" /><path
         style="display:inline;fill:#d8d8ee;fill-opacity:1;stroke:none;stroke-width:0.558001;stroke-dasharray:none;stroke-opacity:0.557895"
         d="M 873.80254,4257.8344 876.31318,4245.5784 V 4231.7283 L 873.05418,4231.7287 862.90846,4239.1235 Z"
         id="path3"
         sodipodi:nodetypes="cccccc"
         inkscape:label="path2944 purple fill left bottom"
         transform="translate(4.3750002e-6,-2.2916666e-5)" /><path
         style="display:inline;fill:#d8d8ee;fill-opacity:1;stroke:none;stroke-width:0.558;stroke-dasharray:none;stroke-opacity:0.557895"
         d="M 885.81135,4257.3135 883.34983,4245.4456 883.35027,4231.7287 H 886.80427 L 896.92027,4239.1277 Z"
         id="path4"
         sodipodi:nodetypes="cccccc"
         inkscape:label="path2945 purple fill right bottom"
         transform="translate(4.3750002e-6,-2.2916666e-5)" /><path
         style="fill:none;stroke:#ffffff;stroke-width:3.1;stroke-dasharray:none;stroke-opacity:1"
         d="M 887.03223,4233.3943 897.41032,4240.8379 885.80435,4259.5098 883.33133,4247.5618 V 4218.1053 H 892.48027 L 896.7937,4224.5103 892.88027,4230.4097 886.44855,4230.4092"
         id="path2956"
         sodipodi:nodetypes="ccccccccc"
         inkscape:label="path2956 B" /><path
         style="display:inline;fill:none;stroke:#ffffff;stroke-width:3.1;stroke-dasharray:none;stroke-opacity:1"
         d="M 869.00602,4236.1045 862.51433,4240.8378 873.81026,4260.0399 876.36178,4247.562 V 4218.1049 L 867.10118,4218.1053 862.77525,4223.7866 864.56406,4229.687"
         id="path2957"
         sodipodi:nodetypes="cccccccc"
         inkscape:label="path2957 J" /></g></g></svg>
