<?xml version="1.0" encoding="UTF-8" standalone="no"?>
<svg
   width="399.23807"
   height="399.23807"
   viewBox="0 0 374.28571 374.28571"
   id="svg2"
   version="1.1"
   inkscape:version="1.3.2 (091e20e, 2023-11-25)"
   sodipodi:docname="logo_circle_JB.svg"
   xmlns:inkscape="http://www.inkscape.org/namespaces/inkscape"
   xmlns:sodipodi="http://sodipodi.sourceforge.net/DTD/sodipodi-0.dtd"
   xmlns="http://www.w3.org/2000/svg"
   xmlns:svg="http://www.w3.org/2000/svg"
   xmlns:rdf="http://www.w3.org/1999/02/22-rdf-syntax-ns#"
   xmlns:cc="http://creativecommons.org/ns#"
   xmlns:dc="http://purl.org/dc/elements/1.1/">
  <defs
     id="defs4" />
  <sodipodi:namedview
     id="base"
     pagecolor="#ffffff"
     bordercolor="#666666"
     borderopacity="1.0"
     inkscape:pageopacity="0.0"
     inkscape:pageshadow="2"
     inkscape:zoom="0.6872286"
     inkscape:cx="69.845754"
     inkscape:cy="291.75154"
     inkscape:document-units="px"
     inkscape:current-layer="layer1"
     showgrid="false"
     inkscape:window-width="1208"
     inkscape:window-height="826"
     inkscape:window-x="31"
     inkscape:window-y="64"
     inkscape:window-maximized="0"
     fit-margin-top="0"
     fit-margin-left="0"
     fit-margin-right="0"
     fit-margin-bottom="0"
     inkscape:document-rotation="0"
     units="px"
     inkscape:showpageshadow="2"
     inkscape:pagecheckerboard="0"
     inkscape:deskcolor="#d1d1d1" />
  <metadata
     id="metadata7">
    <rdf:RDF>
      <cc:Work
         rdf:about="">
        <dc:format>image/svg+xml</dc:format>
        <dc:type
           rdf:resource="http://purl.org/dc/dcmitype/StillImage" />
        <dc:title />
      </cc:Work>
    </rdf:RDF>
  </metadata>
  <g
     inkscape:label="Layer 1"
     inkscape:groupmode="layer"
     id="layer1"
     transform="translate(-8.5714305,-9.5050659)"
     style="display:inline">
    <circle
       style="opacity:1;fill:#eaeaea;fill-opacity:1;stroke:#9691c1;stroke-width:4.62952;stroke-miterlimit:22.926;stroke-dasharray:none;stroke-dashoffset:0;stroke-opacity:1"
       id="path4217"
       cx="195.71428"
       cy="196.64792"
       r="184.82809" />
    <g
       id="g839"
       transform="matrix(6.3605341,0,0,6.3605341,-5401.3182,-30080.818)">
      <path
         style="fill:#d8d8ee;fill-opacity:1;stroke:none;stroke-width:0.203755"
         d="M 865.57,4747.5345 867.3,4753.4061 868.78763,4754.2465 H 877.55 L 879.05879,4754.2466 879.059,4744.6349 V 4741.8279 H 869.818 Z"
         id="path386"
         sodipodi:nodetypes="ccccccccc" />
      <path
         style="fill:#d8d8ee;fill-opacity:1;stroke:none;stroke-width:0.198008"
         d="M 880.64,4744.0363 V 4754.1765 L 882.1556,4754.177 890.117,4754.1766 894,4748.2241 889.755,4741.8279 H 880.64 Z"
         id="path444"
         sodipodi:nodetypes="cccccccc" />
      <path
         style="fill:#d8d8ee;fill-opacity:1;stroke:none;stroke-width:0.558001;stroke-dasharray:none;stroke-opacity:0.557895"
         d="M 876.54836,4781.5836 879.059,4769.3276 V 4755.4775 L 875.8,4755.4779 865.65428,4762.8727 Z"
         id="path445"
         sodipodi:nodetypes="cccccc" />
      <path
         style="fill:#d8d8ee;fill-opacity:1;stroke:none;stroke-width:0.558001;stroke-dasharray:none;stroke-opacity:0.557895"
         d="M 883.06508,4781.0627 880.60356,4769.1948 880.604,4755.4779 H 884.058 L 894.174,4762.8769 Z"
         id="path446"
         sodipodi:nodetypes="cccccc" />
      <path
         style="fill:none;stroke:#000000;stroke-width:0.1;stroke-dasharray:none;stroke-opacity:1"
         d="M 884.03192,4755.5104 894.26365,4762.8707 883.05808,4781.1425 880.58506,4769.1945 V 4740.668 L 890.13391,4740.7055 894.04743,4746.6019 889.734,4753.0008 883.70228,4753.0006"
         id="path835"
         sodipodi:nodetypes="ccccccccc" />
      <path
         style="fill:none;stroke:#000000;stroke-width:0.1;stroke-dasharray:none;stroke-opacity:1"
         d="M 872.15219,4758.1373 865.6605,4762.8706 876.55608,4781.6726 879.1076,4769.1947 V 4740.667 L 869.64709,4740.6665 865.75,4745.7489 867.83905,4752.2491"
         id="path836"
         sodipodi:nodetypes="cccccccc" />
      <path
         style="fill:none;stroke:#000000;stroke-width:0.1;stroke-dasharray:none;stroke-opacity:1"
         d="M 884.28596,4757.1435 894.66405,4764.5871 883.05808,4783.259 880.58506,4771.311 V 4741.8545 H 889.734 L 894.04743,4748.2595 890.134,4754.1589 883.70228,4754.1584"
         id="path838"
         sodipodi:nodetypes="ccccccccc" />
      <path
         style="fill:none;stroke:#000000;stroke-width:0.1;stroke-dasharray:none;stroke-opacity:1"
         d="M 871.75184,4759.8537 865.26015,4764.587 876.55608,4783.7891 879.1076,4771.3112 V 4741.8541 L 869.847,4741.8545 865.52107,4747.5358 867.30988,4753.4362"
         id="path839"
         sodipodi:nodetypes="cccccccc" />
    </g>
  </g>
  <g
     inkscape:groupmode="layer"
     id="layer5"
     inkscape:label="smile"
     sodipodi:insensitive="true"
     style="display:none">
    <path
       id="path1612"
       style="display:inline;fill:#004654;fill-opacity:1;fill-rule:evenodd;stroke:none;stroke-width:1.04664;stroke-miterlimit:4;stroke-dasharray:none"
       d="M 326.4321,186.19813 A 155.90761,110.94367 0 0 1 187.14193,247.30226 155.90761,110.94367 0 0 1 47.853596,186.19996 139.29051,126.09456 0 0 0 187.14193,311.81582 139.29051,126.09456 0 0 0 326.4321,186.19813 Z" />
  </g>
  <g
     inkscape:groupmode="layer"
     id="layer7"
     inkscape:label="smile no edges"
     style="display:none"
     sodipodi:insensitive="true">
    <path
       style="fill:none;stroke:#004d5b;stroke-width:45.8099;stroke-linecap:round;stroke-linejoin:miter;stroke-miterlimit:4;stroke-dasharray:none;stroke-opacity:1"
       d="m 55.41228,185.66744 c 0,0 29.886791,109.03474 132.05572,108.92465 100.47993,-0.10827 131.40542,-108.9265 131.40542,-108.9265"
       id="path1638"
       sodipodi:nodetypes="csc" />
  </g>
  <g
     inkscape:groupmode="layer"
     id="g1642"
     inkscape:label="smile no edges rounder"
     style="display:none"
     sodipodi:insensitive="true">
    <path
       style="fill:none;stroke:#004d5b;stroke-width:45.8099;stroke-linecap:round;stroke-linejoin:miter;stroke-miterlimit:4;stroke-dasharray:none;stroke-opacity:1"
       d="m 66.662281,185.66744 c 0,0 18.63679,109.03474 120.805719,108.92465 100.47993,-0.10827 120.15542,-108.9265 120.15542,-108.9265"
       id="path1640"
       sodipodi:nodetypes="csc" />
  </g>
  <g
     inkscape:groupmode="layer"
     id="g1646"
     inkscape:label="smile no edges rounder copy"
     style="display:inline" />
  <g
     inkscape:groupmode="layer"
     id="layer6"
     inkscape:label="smile raw"
     style="display:none"
     sodipodi:insensitive="true">
    <ellipse
       style="display:inline;fill:#004654;fill-opacity:1;fill-rule:evenodd;stroke:none;stroke-width:1.04664;stroke-miterlimit:4;stroke-dasharray:none"
       id="ellipse1622"
       cx="198.69075"
       cy="195.22575"
       rx="139.29051"
       ry="126.09457"
       transform="translate(-8.5714305,-9.5050655)" />
    <ellipse
       style="display:inline;fill:#ce8700;fill-opacity:1;fill-rule:evenodd;stroke:none;stroke-width:1.03867;stroke-miterlimit:4;stroke-dasharray:none"
       id="ellipse1624"
       cx="198.69075"
       cy="145.86316"
       rx="155.90761"
       ry="110.94367"
       transform="translate(-8.5714305,-9.5050655)" />
  </g>
</svg>
